<svg width="1240" height="860" xmlns="http://www.w3.org/2000/svg">
<style> text { font-family:Helvetica;font-weight:bold;font-size:12; } </style>	<polygon points="0,0 1240,0 1240,860 0,860 0,0" fill="transparent" stroke="black" stroke-width="3" />
	<polygon points="160,0 790,0 790,100 540,100 540,80 340,80 340,100 260,100 260,80 160,80 160,0" fill="transparent" stroke="black" stroke-width="1" />
	<line x1="790" y1="40" x2="790" y2="60" stroke="white" stroke-width="2" />
	<line x1="160" y1="30" x2="160" y2="50" stroke="white" stroke-width="2" />
	<text x="162" y="20" fill="black">IT</text>
	<text x="162" y="35" fill="black">(7)</text>
	<polygon points="820,0 1120,0 1120,190 1000,190 1000,80 900,80 900,190 820,190 820,0" fill="transparent" stroke="black" stroke-width="1" />
	<line x1="820" y1="80" x2="820" y2="100" stroke="white" stroke-width="2" />
	<line x1="820" y1="80" x2="820" y2="100" stroke="white" stroke-width="2" />
	<text x="822" y="20" fill="black">IT</text>
	<text x="822" y="35" fill="black">(3)</text>
	<polygon points="1120,0 1240,0 1240,190 1120,190 1120,0" fill="transparent" stroke="black" stroke-width="1" />
	<line x1="1170" y1="190" x2="1190" y2="190" stroke="white" stroke-width="2" />
	<text x="1122" y="20" fill="black">SECURITY</text>
	<text x="1122" y="35" fill="black">(2)</text>
	<polygon points="160,80 260,80 260,100 340,100 340,80 540,80 540,100 790,100 790,190 490,190 490,150 430,150 430,190 160,190 160,80" fill="transparent" stroke="black" stroke-width="1" />
	<line x1="630" y1="190" x2="650" y2="190" stroke="white" stroke-width="2" />
	<text x="162" y="100" fill="black">SECURITY</text>
	<text x="162" y="115" fill="black">(6)</text>
	<polygon points="900,80 1000,80 1000,190 900,190 900,80" fill="transparent" stroke="black" stroke-width="1" />
	<line x1="940" y1="190" x2="960" y2="190" stroke="white" stroke-width="2" />
	<text x="902" y="100" fill="black">SECURITY</text>
	<text x="902" y="115" fill="black">(1)</text>
	<polygon points="0,220 130,220 130,360 0,360 0,220" fill="transparent" stroke="black" stroke-width="1" />
	<line x1="50" y1="360" x2="70" y2="360" stroke="white" stroke-width="2" />
	<line x1="50" y1="360" x2="70" y2="360" stroke="white" stroke-width="2" />
	<text x="2" y="240" fill="black">SECURITY</text>
	<text x="2" y="255" fill="black">(1)</text>
	<polygon points="160,220 790,220 790,360 510,360 510,320 450,320 450,360 160,360 160,220" fill="transparent" stroke="black" stroke-width="1" />
	<line x1="790" y1="280" x2="790" y2="300" stroke="white" stroke-width="2" />
	<line x1="290" y1="360" x2="310" y2="360" stroke="white" stroke-width="2" />
	<line x1="790" y1="280" x2="790" y2="300" stroke="white" stroke-width="2" />
	<text x="162" y="240" fill="black">SECURITY</text>
	<text x="162" y="255" fill="black">(6)</text>
	<polygon points="820,220 1240,220 1240,360 820,360 820,220" fill="transparent" stroke="black" stroke-width="1" />
	<line x1="1020" y1="360" x2="1040" y2="360" stroke="white" stroke-width="2" />
	<text x="822" y="240" fill="black">COMMUNICATIONS</text>
	<text x="822" y="255" fill="black">(4)</text>
	<polygon points="0,390 130,390 130,550 0,550 0,390" fill="transparent" stroke="black" stroke-width="1" />
	<line x1="130" y1="460" x2="130" y2="480" stroke="white" stroke-width="2" />
	<line x1="50" y1="390" x2="70" y2="390" stroke="white" stroke-width="2" />
	<text x="2" y="410" fill="black">COMMUNICATIONS</text>
	<text x="2" y="425" fill="black">(2)</text>
	<polygon points="160,390 460,390 460,640 340,640 340,550 240,550 240,570 160,570 160,390" fill="transparent" stroke="black" stroke-width="1" />
	<line x1="300" y1="390" x2="320" y2="390" stroke="white" stroke-width="2" />
	<line x1="160" y1="470" x2="160" y2="490" stroke="white" stroke-width="2" />
	<line x1="160" y1="470" x2="160" y2="490" stroke="white" stroke-width="2" />
	<text x="162" y="410" fill="black">COMMUNICATIONS</text>
	<text x="162" y="425" fill="black">(6)</text>
	<polygon points="500,390 790,390 790,490 500,490 500,390" fill="transparent" stroke="black" stroke-width="1" />
	<line x1="630" y1="390" x2="650" y2="390" stroke="white" stroke-width="2" />
	<text x="502" y="410" fill="black">COMMUNICATIONS</text>
	<text x="502" y="425" fill="black">(3)</text>
	<polygon points="820,390 1240,390 1240,550 980,550 980,570 900,570 900,490 820,490 820,390" fill="transparent" stroke="black" stroke-width="1" />
	<line x1="1020" y1="390" x2="1040" y2="390" stroke="white" stroke-width="2" />
	<line x1="820" y1="430" x2="820" y2="450" stroke="white" stroke-width="2" />
	<text x="822" y="410" fill="black">COMMUNICATIONS</text>
	<text x="822" y="425" fill="black">(7)</text>
	<polygon points="500,490 790,490 790,710 500,710 500,490" fill="transparent" stroke="black" stroke-width="1" />
	<line x1="630" y1="710" x2="650" y2="710" stroke="white" stroke-width="2" />
	<text x="502" y="510" fill="black">BUSINESS</text>
	<text x="502" y="525" fill="black">CONSULTANTS</text>
	<text x="502" y="540" fill="black">(6)</text>
	<polygon points="820,490 900,490 900,570 980,570 980,550 1240,550 1240,710 820,710 820,490" fill="transparent" stroke="black" stroke-width="1" />
	<line x1="820" y1="590" x2="820" y2="610" stroke="white" stroke-width="2" />
	<line x1="820" y1="590" x2="820" y2="610" stroke="white" stroke-width="2" />
	<text x="822" y="510" fill="black">BUSINESS</text>
	<text x="822" y="525" fill="black">CONSULTANTS</text>
	<text x="822" y="540" fill="black">(7)</text>
	<polygon points="0,550 130,550 130,710 0,710 0,550" fill="transparent" stroke="black" stroke-width="1" />
	<line x1="130" y1="620" x2="130" y2="640" stroke="white" stroke-width="2" />
	<text x="2" y="570" fill="black">BUSINESS</text>
	<text x="2" y="585" fill="black">CONSULTANTS</text>
	<text x="2" y="600" fill="black">(1)</text>
	<polygon points="240,550 340,550 340,640 460,640 460,710 160,710 160,570 240,570 240,550" fill="transparent" stroke="black" stroke-width="1" />
	<line x1="300" y1="710" x2="320" y2="710" stroke="white" stroke-width="2" />
	<line x1="160" y1="630" x2="160" y2="650" stroke="white" stroke-width="2" />
	<text x="242" y="570" fill="black">BUSINESS</text>
	<text x="242" y="585" fill="black">CONSULTANTS</text>
	<text x="242" y="600" fill="black">(3)</text>
	<polygon points="0,740 130,740 130,860 0,860 0,740" fill="transparent" stroke="black" stroke-width="1" />
	<line x1="50" y1="740" x2="70" y2="740" stroke="white" stroke-width="2" />
	<line x1="50" y1="740" x2="70" y2="740" stroke="white" stroke-width="2" />
	<text x="2" y="760" fill="black">BUSINESS</text>
	<text x="2" y="775" fill="black">CONSULTANTS</text>
	<text x="2" y="790" fill="black">(1)</text>
	<polygon points="160,740 440,740 440,790 500,790 500,740 1110,740 1110,860 160,860 160,740" fill="transparent" stroke="black" stroke-width="1" />
	<line x1="1110" y1="790" x2="1110" y2="810" stroke="white" stroke-width="2" />
	<line x1="290" y1="740" x2="310" y2="740" stroke="white" stroke-width="2" />
	<line x1="290" y1="740" x2="310" y2="740" stroke="white" stroke-width="2" />
	<text x="162" y="760" fill="black">BUSINESS</text>
	<text x="162" y="775" fill="black">CONSULTANTS</text>
	<text x="162" y="790" fill="black">(9)</text>
	<polygon points="0,0 60,0 60,70 0,70 0,0" fill="transparent" stroke="black" stroke-width="1" />
	<line x1="60" y1="20" x2="60" y2="40" stroke="white" stroke-width="2" />
	<text x="2" y="20" fill="black">Stairs/</text>
	<text x="2" y="35" fill="black">Elevators</text>
	<polygon points="0,70 130,70 130,190 0,190 0,70" fill="transparent" stroke="black" stroke-width="1" />
	<line x1="130" y1="120" x2="130" y2="140" stroke="white" stroke-width="2" />
	<text x="2" y="90" fill="black">Rest</text>
	<text x="2" y="105" fill="black">Room</text>
	<polygon points="430,150 490,150 490,190 430,190 430,150" fill="transparent" stroke="black" stroke-width="1" />
	<line x1="450" y1="190" x2="470" y2="190" stroke="white" stroke-width="2" />
	<text x="432" y="170" fill="black">Closet</text>
	<polygon points="440,740 500,740 500,790 440,790 440,740" fill="transparent" stroke="black" stroke-width="1" />
	<line x1="460" y1="740" x2="480" y2="740" stroke="white" stroke-width="2" />
	<text x="442" y="760" fill="black">Closet</text>
	<polygon points="450,320 510,320 510,360 450,360 450,320" fill="transparent" stroke="black" stroke-width="1" />
	<line x1="470" y1="360" x2="490" y2="360" stroke="white" stroke-width="2" />
	<text x="452" y="340" fill="black">Closet</text>
	<polygon points="1170,710 1240,710 1240,800 1170,800 1170,710" fill="transparent" stroke="black" stroke-width="1" />
	<line x1="1170" y1="740" x2="1170" y2="760" stroke="white" stroke-width="2" />
	<text x="1172" y="730" fill="black">Stairs/</text>
	<text x="1172" y="745" fill="black">Elevators</text>
	<polygon points="1170,800 1240,800 1240,860 1170,860 1170,800" fill="transparent" stroke="black" stroke-width="1" />
	<line x1="1170" y1="820" x2="1170" y2="840" stroke="white" stroke-width="2" />
	<text x="1172" y="820" fill="black">Closet</text>
</svg>